<svg width="84" height="54" viewBox="0 0 84 54" fill="none" xmlns="http://www.w3.org/2000/svg">
<g filter="url(#filter0_d_1574_30)">
<rect x="12" y="12" width="60" height="30" rx="10" fill="#764267"/>
<rect x="13" y="13" width="58" height="28" rx="9" stroke="#311729" stroke-width="2"/>
</g>
<path d="M49.244 24.4347H46.0565C45.9656 23.9119 45.7979 23.4489 45.5536 23.0455C45.3093 22.6364 45.0053 22.2898 44.6417 22.0057C44.2781 21.7216 43.8633 21.5085 43.3974 21.3665C42.9371 21.2188 42.44 21.1449 41.9059 21.1449C40.957 21.1449 40.1161 21.3835 39.3832 21.8608C38.6502 22.3324 38.0763 23.0256 37.6616 23.9403C37.2468 24.8494 37.0394 25.9602 37.0394 27.2727C37.0394 28.608 37.2468 29.733 37.6616 30.6477C38.082 31.5568 38.6559 32.2443 39.3832 32.7102C40.1161 33.1705 40.9542 33.4006 41.8974 33.4006C42.4201 33.4006 42.9087 33.3324 43.3633 33.196C43.8235 33.054 44.2354 32.8466 44.5991 32.5739C44.9684 32.3011 45.2781 31.9659 45.5281 31.5682C45.7837 31.1705 45.9599 30.7159 46.0565 30.2045L49.244 30.2216C49.1246 31.0511 48.8661 31.8295 48.4684 32.5568C48.0763 33.2841 47.5621 33.9261 46.9258 34.483C46.2894 35.0341 45.5451 35.4659 44.6928 35.7784C43.8406 36.0852 42.8945 36.2386 41.8548 36.2386C40.3207 36.2386 38.9513 35.8835 37.7468 35.1733C36.5423 34.4631 35.5934 33.4375 34.9002 32.0966C34.207 30.7557 33.8604 29.1477 33.8604 27.2727C33.8604 25.392 34.2099 23.7841 34.9087 22.4489C35.6076 21.108 36.5593 20.0824 37.7638 19.3722C38.9684 18.6619 40.332 18.3068 41.8548 18.3068C42.8263 18.3068 43.7298 18.4432 44.565 18.7159C45.4002 18.9886 46.1445 19.3892 46.7979 19.9176C47.4513 20.4403 47.9883 21.0824 48.4087 21.8438C48.8349 22.5994 49.1133 23.4631 49.244 24.4347Z" fill="white" fill-opacity="0.7"/>
<defs>
<filter id="filter0_d_1574_30" x="0" y="0" width="84" height="54" filterUnits="userSpaceOnUse" color-interpolation-filters="sRGB">
<feFlood flood-opacity="0" result="BackgroundImageFix"/>
<feColorMatrix in="SourceAlpha" type="matrix" values="0 0 0 0 0 0 0 0 0 0 0 0 0 0 0 0 0 0 127 0" result="hardAlpha"/>
<feOffset/>
<feGaussianBlur stdDeviation="6"/>
<feComposite in2="hardAlpha" operator="out"/>
<feColorMatrix type="matrix" values="0 0 0 0 0 0 0 0 0 0 0 0 0 0 0 0 0 0 0.5 0"/>
<feBlend mode="normal" in2="BackgroundImageFix" result="effect1_dropShadow_1574_30"/>
<feBlend mode="normal" in="SourceGraphic" in2="effect1_dropShadow_1574_30" result="shape"/>
</filter>
</defs>
</svg>
