<svg width="84" height="54" viewBox="0 0 84 54" fill="none" xmlns="http://www.w3.org/2000/svg">
<g filter="url(#filter0_d_1574_24)">
<rect x="12" y="12" width="60" height="30" rx="10" fill="#6C673D"/>
<rect x="13" y="13" width="58" height="28" rx="9" stroke="#312E17" stroke-width="2"/>
</g>
<path d="M44.9144 23.3438C44.8349 22.5994 44.4996 22.0199 43.9087 21.6051C43.3235 21.1903 42.5621 20.983 41.6246 20.983C40.9656 20.983 40.4002 21.0824 39.9286 21.2812C39.457 21.4801 39.0962 21.75 38.8462 22.0909C38.5962 22.4318 38.4684 22.821 38.4627 23.2585C38.4627 23.6222 38.5451 23.9375 38.7099 24.2045C38.8803 24.4716 39.1104 24.6989 39.4002 24.8864C39.69 25.0682 40.011 25.2216 40.3633 25.3466C40.7156 25.4716 41.0707 25.5767 41.4286 25.6619L43.065 26.071C43.7241 26.2244 44.3576 26.4318 44.9656 26.6932C45.5792 26.9545 46.1275 27.2841 46.6104 27.6818C47.0991 28.0795 47.4854 28.5597 47.7695 29.1222C48.0536 29.6847 48.1957 30.3437 48.1957 31.0994C48.1957 32.1222 47.9343 33.0227 47.4116 33.8011C46.8889 34.5739 46.1332 35.179 45.1445 35.6165C44.1616 36.0483 42.9712 36.2642 41.5735 36.2642C40.2156 36.2642 39.0366 36.054 38.0366 35.6335C37.0423 35.2131 36.2638 34.5994 35.7013 33.7926C35.1445 32.9858 34.8434 32.0028 34.7979 30.8438H37.9087C37.9542 31.4517 38.1417 31.9574 38.4712 32.3608C38.8008 32.7642 39.2298 33.0653 39.7582 33.2642C40.2923 33.4631 40.8888 33.5625 41.5479 33.5625C42.2354 33.5625 42.8377 33.4602 43.3548 33.2557C43.8775 33.0455 44.2866 32.7557 44.582 32.3864C44.8775 32.0114 45.0281 31.5739 45.0337 31.0739C45.0281 30.6193 44.8945 30.2443 44.6332 29.9489C44.3718 29.6477 44.0053 29.3977 43.5337 29.1989C43.0678 28.9943 42.5224 28.8125 41.8974 28.6534L39.9116 28.142C38.4741 27.7727 37.3377 27.2131 36.5025 26.4631C35.6729 25.7074 35.2582 24.7045 35.2582 23.4545C35.2582 22.4261 35.5366 21.5256 36.0934 20.7528C36.6559 19.9801 37.4201 19.3807 38.386 18.9545C39.3519 18.5227 40.4457 18.3068 41.6673 18.3068C42.9059 18.3068 43.9911 18.5227 44.9229 18.9545C45.8604 19.3807 46.5962 19.9744 47.1303 20.7358C47.6644 21.4915 47.94 22.3608 47.957 23.3438H44.9144Z" fill="white" fill-opacity="0.7"/>
<defs>
<filter id="filter0_d_1574_24" x="0" y="0" width="84" height="54" filterUnits="userSpaceOnUse" color-interpolation-filters="sRGB">
<feFlood flood-opacity="0" result="BackgroundImageFix"/>
<feColorMatrix in="SourceAlpha" type="matrix" values="0 0 0 0 0 0 0 0 0 0 0 0 0 0 0 0 0 0 127 0" result="hardAlpha"/>
<feOffset/>
<feGaussianBlur stdDeviation="6"/>
<feComposite in2="hardAlpha" operator="out"/>
<feColorMatrix type="matrix" values="0 0 0 0 0 0 0 0 0 0 0 0 0 0 0 0 0 0 0.5 0"/>
<feBlend mode="normal" in2="BackgroundImageFix" result="effect1_dropShadow_1574_24"/>
<feBlend mode="normal" in="SourceGraphic" in2="effect1_dropShadow_1574_24" result="shape"/>
</filter>
</defs>
</svg>
