<svg width="84" height="54" viewBox="0 0 84 54" fill="none" xmlns="http://www.w3.org/2000/svg">
<g filter="url(#filter0_d_1574_14)">
<rect x="12" y="12" width="60" height="30" rx="10" fill="#6C673D"/>
<rect x="13" y="13" width="58" height="28" rx="9" stroke="#312E17" stroke-width="2"/>
</g>
<path d="M37.4144 23.3438C37.3349 22.5994 36.9996 22.0199 36.4087 21.6051C35.8235 21.1903 35.0621 20.983 34.1246 20.983C33.4656 20.983 32.9002 21.0824 32.4286 21.2812C31.957 21.4801 31.5962 21.75 31.3462 22.0909C31.0962 22.4318 30.9684 22.821 30.9627 23.2585C30.9627 23.6222 31.0451 23.9375 31.2099 24.2045C31.3803 24.4716 31.6104 24.6989 31.9002 24.8864C32.19 25.0682 32.511 25.2216 32.8633 25.3466C33.2156 25.4716 33.5707 25.5767 33.9286 25.6619L35.565 26.071C36.2241 26.2244 36.8576 26.4318 37.4656 26.6932C38.0792 26.9545 38.6275 27.2841 39.1104 27.6818C39.5991 28.0795 39.9854 28.5597 40.2695 29.1222C40.5536 29.6847 40.6957 30.3437 40.6957 31.0994C40.6957 32.1222 40.4343 33.0227 39.9116 33.8011C39.3889 34.5739 38.6332 35.179 37.6445 35.6165C36.6616 36.0483 35.4712 36.2642 34.0735 36.2642C32.7156 36.2642 31.5366 36.054 30.5366 35.6335C29.5423 35.2131 28.7638 34.5994 28.2013 33.7926C27.6445 32.9858 27.3434 32.0028 27.2979 30.8438H30.4087C30.4542 31.4517 30.6417 31.9574 30.9712 32.3608C31.3008 32.7642 31.7298 33.0653 32.2582 33.2642C32.7923 33.4631 33.3888 33.5625 34.0479 33.5625C34.7354 33.5625 35.3377 33.4602 35.8548 33.2557C36.3775 33.0455 36.7866 32.7557 37.082 32.3864C37.3775 32.0114 37.5281 31.5739 37.5337 31.0739C37.5281 30.6193 37.3945 30.2443 37.1332 29.9489C36.8718 29.6477 36.5053 29.3977 36.0337 29.1989C35.5678 28.9943 35.0224 28.8125 34.3974 28.6534L32.4116 28.142C30.9741 27.7727 29.8377 27.2131 29.0025 26.4631C28.1729 25.7074 27.7582 24.7045 27.7582 23.4545C27.7582 22.4261 28.0366 21.5256 28.5934 20.7528C29.1559 19.9801 29.9201 19.3807 30.886 18.9545C31.8519 18.5227 32.9457 18.3068 34.1673 18.3068C35.4059 18.3068 36.4911 18.5227 37.4229 18.9545C38.3604 19.3807 39.0962 19.9744 39.6303 20.7358C40.1644 21.4915 40.44 22.3608 40.457 23.3438H37.4144Z" fill="white" fill-opacity="0.7"/>
<path d="M52.4144 23.3438C52.3349 22.5994 51.9996 22.0199 51.4087 21.6051C50.8235 21.1903 50.0621 20.983 49.1246 20.983C48.4656 20.983 47.9002 21.0824 47.4286 21.2812C46.957 21.4801 46.5962 21.75 46.3462 22.0909C46.0962 22.4318 45.9684 22.821 45.9627 23.2585C45.9627 23.6222 46.0451 23.9375 46.2099 24.2045C46.3803 24.4716 46.6104 24.6989 46.9002 24.8864C47.19 25.0682 47.511 25.2216 47.8633 25.3466C48.2156 25.4716 48.5707 25.5767 48.9286 25.6619L50.565 26.071C51.2241 26.2244 51.8576 26.4318 52.4656 26.6932C53.0792 26.9545 53.6275 27.2841 54.1104 27.6818C54.5991 28.0795 54.9854 28.5597 55.2695 29.1222C55.5536 29.6847 55.6957 30.3437 55.6957 31.0994C55.6957 32.1222 55.4343 33.0227 54.9116 33.8011C54.3889 34.5739 53.6332 35.179 52.6445 35.6165C51.6616 36.0483 50.4712 36.2642 49.0735 36.2642C47.7156 36.2642 46.5366 36.054 45.5366 35.6335C44.5423 35.2131 43.7638 34.5994 43.2013 33.7926C42.6445 32.9858 42.3434 32.0028 42.2979 30.8438H45.4087C45.4542 31.4517 45.6417 31.9574 45.9712 32.3608C46.3008 32.7642 46.7298 33.0653 47.2582 33.2642C47.7923 33.4631 48.3888 33.5625 49.0479 33.5625C49.7354 33.5625 50.3377 33.4602 50.8548 33.2557C51.3775 33.0455 51.7866 32.7557 52.082 32.3864C52.3775 32.0114 52.5281 31.5739 52.5337 31.0739C52.5281 30.6193 52.3945 30.2443 52.1332 29.9489C51.8718 29.6477 51.5053 29.3977 51.0337 29.1989C50.5678 28.9943 50.0224 28.8125 49.3974 28.6534L47.4116 28.142C45.9741 27.7727 44.8377 27.2131 44.0025 26.4631C43.1729 25.7074 42.7582 24.7045 42.7582 23.4545C42.7582 22.4261 43.0366 21.5256 43.5934 20.7528C44.1559 19.9801 44.9201 19.3807 45.886 18.9545C46.8519 18.5227 47.9457 18.3068 49.1673 18.3068C50.4059 18.3068 51.4911 18.5227 52.4229 18.9545C53.3604 19.3807 54.0962 19.9744 54.6303 20.7358C55.1644 21.4915 55.44 22.3608 55.457 23.3438H52.4144Z" fill="white" fill-opacity="0.7"/>
<defs>
<filter id="filter0_d_1574_14" x="0" y="0" width="84" height="54" filterUnits="userSpaceOnUse" color-interpolation-filters="sRGB">
<feFlood flood-opacity="0" result="BackgroundImageFix"/>
<feColorMatrix in="SourceAlpha" type="matrix" values="0 0 0 0 0 0 0 0 0 0 0 0 0 0 0 0 0 0 127 0" result="hardAlpha"/>
<feOffset/>
<feGaussianBlur stdDeviation="6"/>
<feComposite in2="hardAlpha" operator="out"/>
<feColorMatrix type="matrix" values="0 0 0 0 0 0 0 0 0 0 0 0 0 0 0 0 0 0 0.5 0"/>
<feBlend mode="normal" in2="BackgroundImageFix" result="effect1_dropShadow_1574_14"/>
<feBlend mode="normal" in="SourceGraphic" in2="effect1_dropShadow_1574_14" result="shape"/>
</filter>
</defs>
</svg>
