<svg width="84" height="54" viewBox="0 0 84 54" fill="none" xmlns="http://www.w3.org/2000/svg">
<g filter="url(#filter0_d_1577_2)">
<rect x="12" y="12" width="60" height="30" rx="10" fill="#592F22"/>
<rect x="13" y="13" width="58" height="28" rx="9" stroke="#301912" stroke-width="2"/>
</g>
<path d="M28.683 21.8182V32H27.0423L22.2448 25.0646H22.1602V32H20.3158V21.8182H21.9664L26.759 28.7585H26.8485V21.8182H28.683ZM30.6132 32V24.3636H32.4129V32H30.6132ZM31.518 23.2798C31.233 23.2798 30.9877 23.1854 30.7822 22.9964C30.5767 22.8042 30.474 22.5739 30.474 22.3054C30.474 22.0336 30.5767 21.8033 30.7822 21.6143C30.9877 21.4221 31.233 21.326 31.518 21.326C31.8064 21.326 32.0516 21.4221 32.2538 21.6143C32.4593 21.8033 32.5621 22.0336 32.5621 22.3054C32.5621 22.5739 32.4593 22.8042 32.2538 22.9964C32.0516 23.1854 31.8064 23.2798 31.518 23.2798ZM37.5846 35.0227C36.9383 35.0227 36.3831 34.9349 35.9191 34.7592C35.4551 34.5869 35.0822 34.3549 34.8005 34.0632C34.5188 33.7715 34.3232 33.4484 34.2139 33.0938L35.8346 32.701C35.9075 32.8501 36.0136 32.9976 36.1528 33.1435C36.292 33.2926 36.4793 33.4152 36.7146 33.5114C36.9532 33.6108 37.2532 33.6605 37.6144 33.6605C38.1249 33.6605 38.5474 33.5362 38.8822 33.2876C39.2169 33.0424 39.3843 32.638 39.3843 32.0746V30.6278H39.2948C39.202 30.8134 39.0661 31.004 38.8872 31.1996C38.7115 31.3951 38.4778 31.5592 38.1862 31.6918C37.8978 31.8243 37.5349 31.8906 37.0974 31.8906C36.5107 31.8906 35.9788 31.7531 35.5015 31.478C35.0276 31.1996 34.6497 30.7853 34.368 30.2351C34.0896 29.6816 33.9504 28.9889 33.9504 28.157C33.9504 27.3184 34.0896 26.6108 34.368 26.0341C34.6497 25.4541 35.0292 25.0149 35.5065 24.7166C35.9838 24.415 36.5157 24.2642 37.1024 24.2642C37.5498 24.2642 37.9177 24.3404 38.2061 24.4929C38.4977 24.642 38.7297 24.8227 38.9021 25.0348C39.0744 25.2436 39.2053 25.4408 39.2948 25.6264H39.3943V24.3636H41.1691V32.1243C41.1691 32.7772 41.0133 33.3175 40.7018 33.745C40.3902 34.1726 39.9643 34.4924 39.4241 34.7045C38.8838 34.9167 38.2707 35.0227 37.5846 35.0227ZM37.5995 30.4787C37.9807 30.4787 38.3055 30.3859 38.574 30.2003C38.8424 30.0147 39.0463 29.7479 39.1855 29.3999C39.3247 29.0518 39.3943 28.6342 39.3943 28.147C39.3943 27.6664 39.3247 27.2455 39.1855 26.8842C39.0496 26.523 38.8474 26.2429 38.5789 26.044C38.3138 25.8419 37.9873 25.7408 37.5995 25.7408C37.1985 25.7408 36.8637 25.8452 36.5953 26.054C36.3268 26.2628 36.1246 26.5495 35.9887 26.9141C35.8528 27.2753 35.7849 27.6863 35.7849 28.147C35.7849 28.6143 35.8528 29.0237 35.9887 29.375C36.1279 29.723 36.3318 29.9948 36.6002 30.1903C36.872 30.3826 37.2051 30.4787 37.5995 30.4787ZM46.3346 35.0227C45.6883 35.0227 45.1331 34.9349 44.6691 34.7592C44.2051 34.5869 43.8322 34.3549 43.5505 34.0632C43.2688 33.7715 43.0732 33.4484 42.9639 33.0938L44.5846 32.701C44.6575 32.8501 44.7636 32.9976 44.9028 33.1435C45.042 33.2926 45.2293 33.4152 45.4646 33.5114C45.7032 33.6108 46.0032 33.6605 46.3644 33.6605C46.8749 33.6605 47.2974 33.5362 47.6322 33.2876C47.9669 33.0424 48.1343 32.638 48.1343 32.0746V30.6278H48.0448C47.952 30.8134 47.8161 31.004 47.6372 31.1996C47.4615 31.3951 47.2278 31.5592 46.9362 31.6918C46.6478 31.8243 46.2849 31.8906 45.8474 31.8906C45.2607 31.8906 44.7288 31.7531 44.2515 31.478C43.7776 31.1996 43.3997 30.7853 43.118 30.2351C42.8396 29.6816 42.7004 28.9889 42.7004 28.157C42.7004 27.3184 42.8396 26.6108 43.118 26.0341C43.3997 25.4541 43.7792 25.0149 44.2565 24.7166C44.7338 24.415 45.2657 24.2642 45.8524 24.2642C46.2998 24.2642 46.6677 24.3404 46.9561 24.4929C47.2477 24.642 47.4797 24.8227 47.6521 25.0348C47.8244 25.2436 47.9553 25.4408 48.0448 25.6264H48.1443V24.3636H49.9191V32.1243C49.9191 32.7772 49.7633 33.3175 49.4518 33.745C49.1402 34.1726 48.7143 34.4924 48.1741 34.7045C47.6338 34.9167 47.0207 35.0227 46.3346 35.0227ZM46.3495 30.4787C46.7307 30.4787 47.0555 30.3859 47.324 30.2003C47.5924 30.0147 47.7963 29.7479 47.9355 29.3999C48.0747 29.0518 48.1443 28.6342 48.1443 28.147C48.1443 27.6664 48.0747 27.2455 47.9355 26.8842C47.7996 26.523 47.5974 26.2429 47.3289 26.044C47.0638 25.8419 46.7373 25.7408 46.3495 25.7408C45.9485 25.7408 45.6137 25.8452 45.3453 26.054C45.0768 26.2628 44.8746 26.5495 44.7387 26.9141C44.6028 27.2753 44.5349 27.6863 44.5349 28.147C44.5349 28.6143 44.6028 29.0237 44.7387 29.375C44.8779 29.723 45.0818 29.9948 45.3502 30.1903C45.622 30.3826 45.9551 30.4787 46.3495 30.4787ZM55.1443 32.1491C54.3786 32.1491 53.7174 31.9901 53.1606 31.6719C52.6071 31.3504 52.1812 30.8963 51.8829 30.3097C51.5846 29.7197 51.4355 29.0253 51.4355 28.2266C51.4355 27.4411 51.5846 26.7517 51.8829 26.1584C52.1845 25.5618 52.6054 25.0978 53.1457 24.7663C53.6859 24.4316 54.3206 24.2642 55.0498 24.2642C55.5204 24.2642 55.9646 24.3404 56.3822 24.4929C56.8031 24.642 57.1743 24.8741 57.4958 25.1889C57.8206 25.5038 58.0758 25.9048 58.2615 26.392C58.4471 26.8759 58.5399 27.4527 58.5399 28.1222V28.674H52.2806V27.4609H56.8147C56.8114 27.1162 56.7368 26.8097 56.591 26.5412C56.4452 26.2694 56.2413 26.0556 55.9795 25.8999C55.721 25.7441 55.4194 25.6662 55.0747 25.6662C54.7068 25.6662 54.3836 25.7557 54.1052 25.9347C53.8268 26.1103 53.6097 26.3423 53.4539 26.6307C53.3015 26.9157 53.2236 27.2289 53.2203 27.5703V28.6293C53.2203 29.0734 53.3015 29.4545 53.4639 29.7727C53.6263 30.0876 53.8533 30.3295 54.145 30.4986C54.4366 30.6643 54.778 30.7472 55.1691 30.7472C55.431 30.7472 55.6679 30.7107 55.8801 30.6378C56.0922 30.5616 56.2761 30.4505 56.4319 30.3047C56.5877 30.1589 56.7053 29.9782 56.7849 29.7628L58.4653 29.9517C58.3592 30.3958 58.157 30.7836 57.8588 31.1151C57.5638 31.4432 57.1859 31.6984 56.7252 31.8807C56.2645 32.0597 55.7375 32.1491 55.1443 32.1491ZM60.0624 32V24.3636H61.8074V25.6364H61.887C62.0262 25.1955 62.2648 24.8558 62.6029 24.6172C62.9443 24.3752 63.3337 24.2543 63.7712 24.2543C63.8707 24.2543 63.9817 24.2592 64.1043 24.2692C64.2303 24.2758 64.3347 24.2874 64.4175 24.304V25.9595C64.3413 25.933 64.2203 25.9098 64.0546 25.8899C63.8922 25.8667 63.7348 25.8551 63.5823 25.8551C63.2542 25.8551 62.9592 25.9264 62.6974 26.0689C62.4388 26.2081 62.235 26.402 62.0858 26.6506C61.9367 26.8991 61.8621 27.1858 61.8621 27.5107V32H60.0624Z" fill="white" fill-opacity="0.7"/>
<defs>
<filter id="filter0_d_1577_2" x="0" y="0" width="84" height="54" filterUnits="userSpaceOnUse" color-interpolation-filters="sRGB">
<feFlood flood-opacity="0" result="BackgroundImageFix"/>
<feColorMatrix in="SourceAlpha" type="matrix" values="0 0 0 0 0 0 0 0 0 0 0 0 0 0 0 0 0 0 127 0" result="hardAlpha"/>
<feOffset/>
<feGaussianBlur stdDeviation="6"/>
<feComposite in2="hardAlpha" operator="out"/>
<feColorMatrix type="matrix" values="0 0 0 0 0 0 0 0 0 0 0 0 0 0 0 0 0 0 0.5 0"/>
<feBlend mode="normal" in2="BackgroundImageFix" result="effect1_dropShadow_1577_2"/>
<feBlend mode="normal" in="SourceGraphic" in2="effect1_dropShadow_1577_2" result="shape"/>
</filter>
</defs>
</svg>
