<svg width="40" height="40" viewBox="0 0 40 40" fill="none" xmlns="http://www.w3.org/2000/svg">
<mask id="mask0_496_156" style="mask-type:luminance" maskUnits="userSpaceOnUse" x="0" y="0" width="40" height="40">
<path d="M0 -0.000236511H39.552V39.5518H0V-0.000236511Z" fill="white"/>
</mask>
<g mask="url(#mask0_496_156)">
<path d="M19.776 1.18636C17.2678 1.18636 14.833 1.67831 12.5391 2.64852C10.3251 3.58495 8.33745 4.92489 6.63125 6.63109C4.92506 8.33728 3.58511 10.325 2.64868 12.539C1.67847 14.8328 1.18652 17.2676 1.18652 19.7758C1.18652 22.2839 1.67847 24.7188 2.64868 27.0125C3.58511 29.2267 4.92506 31.2143 6.63125 32.9205C8.33745 34.6267 10.3251 35.9666 12.5391 36.9032C14.833 37.8733 17.2678 38.3652 19.776 38.3652C22.2841 38.3652 24.7189 37.8733 27.0127 36.9032C29.2268 35.9666 31.2145 34.6267 32.9207 32.9205C34.6269 31.2143 35.9668 29.2267 36.9033 27.0125C37.8735 24.7188 38.3654 22.2839 38.3654 19.7758C38.3654 17.2676 37.8735 14.8328 36.9033 12.539C35.9668 10.325 34.6269 8.33728 32.9207 6.63109C31.2145 4.92489 29.2268 3.58495 27.0127 2.64852C24.7189 1.67831 22.2841 1.18636 19.776 1.18636ZM19.776 4.35052C28.2951 4.35052 35.2012 11.2567 35.2012 19.7758C35.2012 28.2949 28.2951 35.2011 19.776 35.2011C11.2568 35.2011 4.35068 28.2949 4.35068 19.7758C4.35068 11.2567 11.2568 4.35052 19.776 4.35052Z" fill="white"/>
<path d="M24.4234 22.7422C22.7851 22.7422 21.457 21.4141 21.457 19.7758C21.457 18.1375 22.7851 16.8094 24.4234 16.8094C26.0618 16.8094 27.3898 18.1375 27.3898 19.7758C27.3898 21.4141 26.0617 22.7422 24.4234 22.7422Z" fill="white"/>
<path d="M17.5016 16.7104C15.8632 16.7104 14.5352 15.3824 14.5352 13.744C14.5352 12.1057 15.8632 10.7776 17.5016 10.7776C19.1399 10.7776 20.468 12.1057 20.468 13.744C20.468 15.3824 19.1399 16.7104 17.5016 16.7104Z" fill="white"/>
<path d="M17.5016 28.7739C15.8632 28.7739 14.5352 27.4458 14.5352 25.8075C14.5352 24.1692 15.8632 22.8411 17.5016 22.8411C19.1399 22.8411 20.468 24.1692 20.468 25.8075C20.468 27.4458 19.1399 28.7739 17.5016 28.7739Z" fill="white"/>
</g>
</svg>
