<svg width="40" height="40" viewBox="0 0 40 40" fill="none" xmlns="http://www.w3.org/2000/svg">
<mask id="mask0_497_171" style="mask-type:luminance" maskUnits="userSpaceOnUse" x="0" y="0" width="40" height="40">
<path d="M0 0.0559158H39.552V39.6079H0V0.0559158Z" fill="white"/>
</mask>
<g mask="url(#mask0_497_171)">
<path d="M19.7762 30.1152C14.1059 30.1152 9.49268 25.5021 9.49268 19.8317C9.49268 14.1614 14.1059 9.5482 19.7762 9.5482C25.4466 9.5482 30.0597 14.1614 30.0597 19.8317C30.0597 25.5021 25.4466 30.1152 19.7762 30.1152Z" fill="#F2F4FF"/>
<path d="M19.7758 7.96655C13.2225 7.96655 7.91016 13.2789 7.91016 19.8322C7.91016 26.3854 13.2225 31.6978 19.7758 31.6978C26.329 31.6978 31.6414 26.3854 31.6414 19.8322C31.6414 13.2789 26.329 7.96655 19.7758 7.96655ZM19.7758 11.1307C22.1 11.1307 24.2852 12.0358 25.9285 13.6793C27.5721 15.3228 28.4772 17.5079 28.4772 19.8322C28.4772 22.1564 27.5721 24.3416 25.9285 25.9849C24.2852 27.6285 22.1 28.5336 19.7758 28.5336C17.4515 28.5336 15.2664 27.6285 13.6229 25.9849C11.9794 24.3416 11.0743 22.1564 11.0743 19.8322C11.0743 17.5079 11.9794 15.3228 13.6229 13.6793C15.2664 12.0358 17.4515 11.1307 19.7758 11.1307Z" fill="#F2F4FF"/>
<path d="M19.776 1.24251C17.2678 1.24251 14.833 1.73446 12.5391 2.70467C10.3251 3.6411 8.33745 4.98104 6.63125 6.68724C4.92506 8.39343 3.58511 10.3812 2.64868 12.5951C1.67847 14.889 1.18652 17.3238 1.18652 19.8319C1.18652 22.3401 1.67847 24.7749 2.64868 27.0687C3.58511 29.2828 4.92506 31.2705 6.63125 32.9767C8.33745 34.6829 10.3251 36.0228 12.5391 36.9593C14.833 37.9294 17.2678 38.4214 19.776 38.4214C22.2841 38.4214 24.7189 37.9294 27.0127 36.9593C29.2268 36.0228 31.2145 34.6829 32.9207 32.9767C34.6269 31.2705 35.9668 29.2828 36.9033 27.0687C37.8735 24.7749 38.3654 22.3401 38.3654 19.8319C38.3654 17.3238 37.8735 14.889 36.9033 12.5951C35.9668 10.3812 34.6269 8.39343 32.9207 6.68724C31.2145 4.98104 29.2268 3.6411 27.0127 2.70467C24.7189 1.73446 22.2841 1.24251 19.776 1.24251ZM19.776 4.40667C28.2951 4.40667 35.2012 11.3128 35.2012 19.8319C35.2012 28.3511 28.2951 35.2572 19.776 35.2572C11.2568 35.2572 4.35068 28.3511 4.35068 19.8319C4.35068 11.3128 11.2568 4.40667 19.776 4.40667Z" fill="#F2F4FF"/>
</g>
</svg>
