<svg width="40" height="40" viewBox="0 0 40 40" fill="none" xmlns="http://www.w3.org/2000/svg">
<mask id="mask0_497_184" style="mask-type:luminance" maskUnits="userSpaceOnUse" x="0" y="0" width="40" height="40">
<path d="M0 -0.000236511H39.552V39.5518H0V-0.000236511Z" fill="white"/>
</mask>
<g mask="url(#mask0_497_184)">
<path d="M21.7534 27.4361V12.1159C25.1613 12.9962 27.6862 16.0968 27.6862 19.776C27.6862 23.4552 25.1613 26.5558 21.7534 27.4361ZM11.8654 19.776C11.8654 16.0968 14.3902 12.9963 17.7982 12.1159V27.4361C14.3902 26.5558 11.8654 23.4552 11.8654 19.776ZM19.7758 7.9104C13.2225 7.9104 7.91016 13.2228 7.91016 19.776C7.91016 26.3292 13.2225 31.6416 19.7758 31.6416C26.329 31.6416 31.6414 26.3292 31.6414 19.776C31.6414 13.2228 26.329 7.9104 19.7758 7.9104Z" fill="white"/>
<path d="M19.776 1.18636C17.2678 1.18636 14.833 1.67831 12.5391 2.64852C10.3251 3.58495 8.33745 4.92489 6.63125 6.63109C4.92506 8.33728 3.58511 10.325 2.64868 12.539C1.67847 14.8328 1.18652 17.2676 1.18652 19.7758C1.18652 22.2839 1.67847 24.7188 2.64868 27.0125C3.58511 29.2267 4.92506 31.2143 6.63125 32.9205C8.33745 34.6267 10.3251 35.9666 12.5391 36.9032C14.833 37.8733 17.2678 38.3652 19.776 38.3652C22.2841 38.3652 24.7189 37.8733 27.0127 36.9032C29.2268 35.9666 31.2145 34.6267 32.9207 32.9205C34.6269 31.2143 35.9668 29.2267 36.9033 27.0125C37.8735 24.7188 38.3654 22.2839 38.3654 19.7758C38.3654 17.2676 37.8735 14.8328 36.9033 12.539C35.9668 10.325 34.6269 8.33728 32.9207 6.63109C31.2145 4.92489 29.2268 3.58495 27.0127 2.64852C24.7189 1.67831 22.2841 1.18636 19.776 1.18636ZM19.776 4.35052C28.2951 4.35052 35.2012 11.2567 35.2012 19.7758C35.2012 28.2949 28.2951 35.2011 19.776 35.2011C11.2568 35.2011 4.35068 28.2949 4.35068 19.7758C4.35068 11.2567 11.2568 4.35052 19.776 4.35052Z" fill="white"/>
</g>
</svg>
