<svg width="50" height="50" viewBox="0 0 50 50" fill="none" xmlns="http://www.w3.org/2000/svg">
<rect width="50" height="50" rx="10" fill="transparent"/>
<path d="M16.4642 38C14.3666 38 12.5283 37.6322 10.9493 36.8966C9.37022 36.1379 8.14468 35.1034 7.27267 33.7931C6.42422 32.4598 6 30.931 6 29.2069C6 27.4828 6.42422 25.9655 7.27267 24.6552C8.14468 23.3218 9.37022 22.2874 10.9493 21.5517C12.5283 20.7931 14.3666 20.4138 16.4642 20.4138C18.5617 20.4138 20.4 20.7931 21.9791 21.5517C23.5581 22.2874 24.7719 23.3218 25.6203 24.6552C26.4923 25.9655 26.9283 27.4828 26.9283 29.2069C26.9283 30.931 26.4923 32.4598 25.6203 33.7931C24.7719 35.1034 23.5581 36.1379 21.9791 36.8966C20.4 37.6322 18.5617 38 16.4642 38ZM16.4642 33.2759C17.7133 33.2759 18.7031 32.9195 19.4337 32.2069C20.1879 31.4713 20.565 30.4713 20.565 29.2069C20.565 27.9425 20.1879 26.954 19.4337 26.2414C18.7031 25.5057 17.7133 25.1379 16.4642 25.1379C15.2151 25.1379 14.2134 25.5057 13.4593 26.2414C12.7286 26.954 12.3633 27.9425 12.3633 29.2069C12.3633 30.4713 12.7286 31.4713 13.4593 32.2069C14.2134 32.9195 15.2151 33.2759 16.4642 33.2759Z" fill="#1D81FF"/>
<path d="M28.894 13.3793H35.1159V29.5517H28.894V13.3793ZM32.0049 38C31.0622 38 30.2727 37.7011 29.6363 37.1034C29 36.4828 28.6818 35.7241 28.6818 34.8276C28.6818 33.908 29 33.1494 29.6363 32.5517C30.2727 31.954 31.0622 31.6552 32.0049 31.6552C32.9241 31.6552 33.7018 31.9655 34.3382 32.5862C34.9745 33.1839 35.2927 33.931 35.2927 34.8276C35.2927 35.7241 34.9745 36.4828 34.3382 37.1034C33.7018 37.7011 32.9241 38 32.0049 38Z" fill="#1D81FF"/>
<path d="M37.7781 12H44V37.4828H37.7781V12Z" fill="#1D81FF"/>
<path d="M23.4717 23.489L22.1592 18.5908L20.3663 21.6962L23.4717 23.489Z" stroke="#1D81FF" stroke-width="2"/>
<path d="M10.0908 23.489L11.4033 18.5908L13.1962 21.6962L10.0908 23.489Z" stroke="#1D81FF" stroke-width="2"/>
</svg>
